PathFileType	4	(X/Y/Z)	/Users/itak/Documents/Research/Walk-IL/dataset/trc/00506_00183.trc
DataRate	CameraRate	NumFrames	NumMarkers	Units	OrigDataRate	OrigDataStartFrame	OrigNumFrames
100.000000	100.000000	4	53	mm	100.000000	315	421
Frame#	Time	RPSI			LPSI			L3			STRN			T10			C7			CLAV			RBAK			LBAK			LSHO			LUPA			LAEL			LAOL			LWTS			LWPS			LFRA			LIFD			LHPS			LHTS			RSHO			RUPA			RAEL			RAOL			RWTS			RWPS			RFRA			RIFD			RHTS			RHPS			RBHD			LFHD			RFHD			LBHD			LHIP			RHIP			RASI			LASI			LKNE			LTHI			LANK			LTIP			LTOE			LMT1			LMT5			LHEE			RKNE			RTHI			RANK			RTIP			RTOE			RMT1			RMT5			RHEE			
		X1	Y1	Z1	X2	Y2	Z2	X3	Y3	Z3	X4	Y4	Z4	X5	Y5	Z5	X6	Y6	Z6	X7	Y7	Z7	X8	Y8	Z8	X9	Y9	Z9	X10	Y10	Z10	X11	Y11	Z11	X12	Y12	Z12	X13	Y13	Z13	X14	Y14	Z14	X15	Y15	Z15	X16	Y16	Z16	X17	Y17	Z17	X18	Y18	Z18	X19	Y19	Z19	X20	Y20	Z20	X21	Y21	Z21	X22	Y22	Z22	X23	Y23	Z23	X24	Y24	Z24	X25	Y25	Z25	X26	Y26	Z26	X27	Y27	Z27	X28	Y28	Z28	X29	Y29	Z29	X30	Y30	Z30	X31	Y31	Z31	X32	Y32	Z32	X33	Y33	Z33	X34	Y34	Z34	X35	Y35	Z35	X36	Y36	Z36	X37	Y37	Z37	X38	Y38	Z38	X39	Y39	Z39	X40	Y40	Z40	X41	Y41	Z41	X42	Y42	Z42	X43	Y43	Z43	X44	Y44	Z44	X45	Y45	Z45	X46	Y46	Z46	X47	Y47	Z47	X48	Y48	Z48	X49	Y49	Z49	X50	Y50	Z50	X51	Y51	Z51	X52	Y52	Z52	X53	Y53	Z53	

316	3.15	1214.66064453125	962.97314453125	1045.12109375	1266.78173828125	967.871337890625	933.5130004882812	1245.509643554688	1040.001831054688	988.860595703125	1453.042846679688	1194.697998046875	1065.810302734375	1234.421875	1142.04443359375	989.4032592773438	1278.384033203125	1372.390380859375	1008.051330566406	1421.550659179688	1290.64111328125	1054.729736328125	1202.766845703125	1251.39892578125	1071.1806640625	1281.209594726562	1318.691162109375	916.6414184570312	1395.818725585938	1359.85009765625	877.2412109375	1403.017822265625	1234.11279296875	813.6200561523438	1429.2880859375	1029.99560546875	793.5696411132812	1335.524047851562	1010.421813964844	823.7177734375	1559.478759765625	923.7176513671875	897.765625	1531.994506835938	851.8695678710938	843.2134399414062	1471.579711914062	976.550537109375	812.0147094726562	1633.893310546875	801.0684814453125	944.6885375976562	1578.155151367188	822.1293334960938	861.3800659179688	1614.134643554688	865.7578735351562	895.3201904296875	1282.11669921875	1364.549072265625	1164.891235351562	1242.544555664062	1299.78955078125	1211.143676757812	1214.692626953125	1034.236083984375	1255.668090820312	1177.408935546875	1017.925170898438	1203.55712890625	1345.743896484375	859.8941040039062	1276.527221679688	1263.704956054688	823.3507690429688	1291.348510742188	1215.982788085938	979.2288208007812	1265.675048828125	1371.962524414062	702.2520751953125	1298.574462890625	1364.8330078125	771.7647705078125	1315.312133789062	1294.59814453125	757.4146118164062	1309.582763671875	1259.280395507812	1509.54736328125	1064.9453125	1426.725341796875	1601.831665039062	1005.967590332031	1353.794677734375	1598.9541015625	1109.365356445312	1339.68359375	1503.934448242188	928.3773193359375	1417.4443359375	897.6735229492188	856.2318725585938	1262.372436523438	859.7020263671875	1198.556884765625	1376.828857421875	909.116943359375	1178.968872070312	1472.983520507812	930.2620239257812	957.6712036132812	1422.394897460938	475.8462524414062	906.2693481445312	1444.429443359375	633.7141723632812	887.2553100585938	1287.969970703125	54.48583221435547	841.2154541015625	1384.801879882812	326.9448547363281	879.9352416992188	1433.717407226562	19.96960258483887	994.7566528320312	1347.655517578125	41.31443786621094	978.8136596679688	1387.429443359375	36.99154663085938	886.6851196289062	1218.119262695312	53.5313606262207	872.210205078125	1320.18701171875	474.9775390625	1170.735717773438	1298.807983398438	730.8140869140625	1209.422119140625	1266.556762695312	39.64119338989258	1116.041381835938	1334.819458007812	328.3722229003906	1153.70263671875	1466.937744140625	26.65531158447266	1156.918334960938	1420.148193359375	32.1702880859375	1095.535034179688	1364.446044921875	34.02495574951172	1175.141479492188	1234.0380859375	29.42159080505371	1055.054077148438	
317	3.16	1216.971435546875	963.5155029296875	1047.717895507812	1268.811401367188	968.2295532226562	935.9878540039062	1247.890625	1040.402709960938	991.2683715820312	1455.607421875	1194.677001953125	1067.753540039062	1236.657592773438	1142.255126953125	991.7715454101562	1280.963989257812	1372.69287109375	1010.830932617188	1424.173095703125	1290.672485351562	1056.95166015625	1205.344116210938	1251.66015625	1073.910034179688	1283.487548828125	1319.19140625	919.33642578125	1398.034423828125	1360.486328125	879.7931518554688	1404.546752929688	1235.013061523438	815.6405029296875	1428.923583984375	1030.201904296875	794.3809204101562	1335.244262695312	1012.030700683594	825.531494140625	1557.89599609375	919.5516967773438	895.9522094726562	1528.220581054688	849.0227661132812	840.8497924804688	1470.304565429688	975.4376220703125	811.8223876953125	1629.924926757812	794.6971435546875	940.6774291992188	1573.775146484375	818.0076904296875	858.2273559570312	1611.120361328125	860.3765869140625	892.2682495117188	1285.098876953125	1364.512329101562	1167.649169921875	1245.645874023438	1299.56396484375	1213.865112304688	1218.550537109375	1033.846435546875	1258.0009765625	1181.27880859375	1017.475341796875	1205.939331054688	1350.821166992188	860.4075927734375	1278.199462890625	1269.150268554688	822.9571533203125	1292.972534179688	1220.205200195312	978.7734985351562	1267.859130859375	1378.99951171875	703.225341796875	1300.025146484375	1370.900146484375	772.5057373046875	1316.811279296875	1300.859375	757.2753295898438	1311.013427734375	1262.234985351562	1509.815185546875	1068.081420898438	1429.797485351562	1601.905883789062	1009.127685546875	1357.065551757812	1598.880126953125	1112.63525390625	1342.397827148438	1504.463500976562	931.3779907226562	1419.0078125	897.4436645507812	858.2171020507812	1264.446533203125	860.2503051757812	1201.26123046875	1378.771362304688	909.0590209960938	1180.961669921875	1475.047607421875	929.9716796875	959.6140747070312	1422.866821289062	475.8421020507812	906.7048950195312	1445.153930664062	633.7018432617188	888.1956176757812	1288.2177734375	54.55102157592773	841.3034057617188	1385.078857421875	327.0314331054688	880.2183837890625	1433.892456054688	19.90670013427734	994.8740844726562	1347.8466796875	41.35541915893555	979.0025024414062	1387.546875	37.1321907043457	886.7771606445312	1218.326171875	53.58813858032227	872.3982543945312	1319.42724609375	474.8849792480469	1172.9736328125	1300.563598632812	730.7210693359375	1211.35546875	1266.310668945312	39.34849548339844	1116.402587890625	1333.675048828125	328.4614868164062	1155.035034179688	1466.877075195312	26.7018928527832	1156.950805664062	1419.97021484375	32.53622055053711	1095.786987304688	1364.255615234375	33.89735412597656	1175.483520507812	1233.9228515625	29.47856712341309	1055.290161132812	
318	3.17	1219.2216796875	963.9169311523438	1050.2412109375	1270.723999023438	968.4603271484375	938.3606567382812	1250.191772460938	1040.6865234375	993.5946044921875	1458.040405273438	1194.6015625	1069.623779296875	1238.832885742188	1142.3330078125	994.0032348632812	1283.409423828125	1372.887451171875	1013.423217773438	1426.6494140625	1290.643676757812	1059.064575195312	1207.77197265625	1251.809814453125	1076.470336914062	1285.674194335938	1319.556518554688	921.8460693359375	1400.168823242188	1361.00244140625	882.19775390625	1406.035034179688	1235.761840820312	817.5841064453125	1428.531982421875	1030.283935546875	795.1732177734375	1334.98291015625	1013.469543457031	827.3438110351562	1556.231201171875	915.4415893554688	894.138427734375	1524.315551757812	846.2090454101562	838.6590576171875	1468.974487304688	974.2300415039062	811.6482543945312	1625.815673828125	788.47265625	936.78173828125	1569.222778320312	813.9447021484375	855.2381591796875	1607.96337890625	855.054931640625	889.265869140625	1287.87353515625	1364.40576171875	1170.226928710938	1248.523315429688	1299.2646484375	1216.38427734375	1222.142578125	1033.395385742188	1260.151489257812	1184.917114257812	1016.952392578125	1208.097900390625	1355.639404296875	860.8353271484375	1279.696411132812	1274.364379882812	822.5145874023438	1294.453735351562	1224.157104492188	978.2466430664062	1269.85693359375	1385.722778320312	704.0552368164062	1301.03515625	1376.724975585938	773.1109619140625	1318.005004882812	1306.86474609375	757.027099609375	1312.163696289062	1265.057861328125	1510.004272460938	1071.132202148438	1432.745849609375	1601.921630859375	1012.235961914062	1360.220703125	1598.691040039062	1115.849487304688	1344.97216796875	1504.991333007812	934.2726440429688	1420.4833984375	897.139892578125	860.0418701171875	1266.6748046875	860.69970703125	1204.100219726562	1380.661010742188	908.962646484375	1182.822875976562	1477.057495117188	929.646484375	961.4259643554688	1423.360595703125	475.767333984375	907.1146240234375	1445.88037109375	633.62939453125	889.0811767578125	1288.482543945312	54.58079528808594	841.2825927734375	1385.37255859375	327.0721435546875	880.455322265625	1434.011596679688	19.86220550537109	994.9563598632812	1347.99267578125	41.36873626708984	979.1114501953125	1387.669555664062	37.21767807006836	886.818359375	1218.542236328125	53.5777702331543	872.4715576171875	1318.736694335938	474.7254028320312	1175.0927734375	1302.299438476562	730.5738525390625	1213.158203125	1266.082641601562	39.08292388916016	1116.732788085938	1332.580810546875	328.5214233398438	1156.278564453125	1466.814819335938	26.75256538391113	1156.975830078125	1419.790405273438	32.85144424438477	1096.019409179688	1364.083618164062	33.77585983276367	1175.784545898438	1233.7744140625	29.47248077392578	1055.504638671875	
319	3.18	1221.419067382812	964.1931762695312	1052.682250976562	1272.538208007812	968.585205078125	940.6243286132812	1252.421508789062	1040.846557617188	995.855224609375	1460.3486328125	1194.468017578125	1071.421508789062	1240.960205078125	1142.27880859375	996.12451171875	1285.720092773438	1372.96484375	1015.838439941406	1428.987670898438	1290.550659179688	1061.068725585938	1210.061157226562	1251.84326171875	1078.875732421875	1287.767700195312	1319.781005859375	924.1773071289062	1402.211059570312	1361.383911132812	884.4503784179688	1407.461669921875	1236.341918945312	819.4468383789062	1428.126953125	1030.225219726562	795.9485473632812	1334.75634765625	1014.70703125	829.14501953125	1554.490234375	911.3672485351562	892.344482421875	1520.327392578125	843.4107666015625	836.6318359375	1467.613403320312	972.9093627929688	811.492919921875	1621.585083007812	782.390869140625	933.0391235351562	1564.555541992188	809.931884765625	852.4214477539062	1604.689575195312	849.791015625	886.3449096679688	1290.450805664062	1364.225830078125	1172.6279296875	1251.1923828125	1298.893432617188	1218.715698242188	1225.5126953125	1032.879028320312	1262.137451171875	1188.348266601562	1016.355102539062	1210.063720703125	1360.2080078125	861.1574096679688	1281.033569335938	1279.344116210938	822.0245971679688	1295.81787109375	1227.875122070312	977.6531372070312	1271.692016601562	1392.082153320312	704.7125244140625	1301.651611328125	1382.288208007812	773.557373046875	1318.927978515625	1312.5849609375	756.664794921875	1313.0703125	1267.748168945312	1510.109985351562	1074.093994140625	1435.572143554688	1601.871948242188	1015.289489746094	1363.25830078125	1598.3837890625	1119.004272460938	1347.4111328125	1505.509155273438	937.0604858398438	1421.89306640625	896.7779541015625	861.726318359375	1269.038940429688	861.0350952148438	1207.037719726562	1382.505493164062	908.8226318359375	1184.566284179688	1479.024047851562	929.2827758789062	963.1241455078125	1423.881103515625	475.6173706054688	907.5142822265625	1446.618774414062	633.4911499023438	889.9256591796875	1288.754638671875	54.57270431518555	841.17431640625	1385.686645507812	327.0603332519531	880.6610717773438	1434.082153320312	19.83086776733398	995.0123291015625	1348.09814453125	41.34953308105469	979.1519775390625	1387.796630859375	37.24888610839844	886.8182373046875	1218.767333984375	53.50489807128906	872.4486083984375	1318.135131835938	474.5030212402344	1177.046508789062	1304.004638671875	730.3724975585938	1214.834228515625	1265.882080078125	38.85194396972656	1117.018432617188	1331.57080078125	328.5460205078125	1157.415405273438	1466.752685546875	26.80502700805664	1156.991577148438	1419.616088867188	33.1069221496582	1096.222778320312	1363.934814453125	33.66232299804688	1176.034423828125	1233.60009765625	29.39754104614258	1055.682373046875	
